<?xml version="1.0" encoding="UTF-8" standalone="no"?>
<svg
   xmlns:dc="http://purl.org/dc/elements/1.1/"
   xmlns:cc="http://creativecommons.org/ns#"
   xmlns:rdf="http://www.w3.org/1999/02/22-rdf-syntax-ns#"
   xmlns:svg="http://www.w3.org/2000/svg"
   xmlns="http://www.w3.org/2000/svg"
   xmlns:sodipodi="http://sodipodi.sourceforge.net/DTD/sodipodi-0.dtd"
   xmlns:inkscape="http://www.inkscape.org/namespaces/inkscape"
   id="insalan_netmap"
   class="netmap"
   width="1200"
   height="920"
   viewBox="0 0 1150 460"
   version="1.1"
   sodipodi:docname="map_insalan_patch.svg"
   inkscape:version="0.92.4 5da689c313, 2019-01-14">
  <metadata
     id="metadata64">
    <rdf:RDF>
      <cc:Work
         rdf:about="">
        <dc:format>image/svg+xml</dc:format>
        <dc:type
           rdf:resource="http://purl.org/dc/dcmitype/StillImage" />
        <dc:title />
      </cc:Work>
    </rdf:RDF>
  </metadata>
  <defs
     id="defs62" />
  <sodipodi:namedview
     pagecolor="#ffffff"
     bordercolor="#666666"
     borderopacity="1"
     objecttolerance="10"
     gridtolerance="10"
     guidetolerance="10"
     inkscape:pageopacity="0"
     inkscape:pageshadow="2"
     inkscape:window-width="1366"
     inkscape:window-height="714"
     id="namedview60"
     showgrid="false"
     inkscape:snap-global="true"
     inkscape:zoom="0.45254832"
     inkscape:cx="589.92185"
     inkscape:cy="361.81474"
     inkscape:window-x="0"
     inkscape:window-y="54"
     inkscape:window-maximized="0"
     inkscape:current-layer="insalan_netmap"
     scale-x="0.5" />
  <path
     
     d="m 730.64963,12.558594 v 11.241552 11.241552 h 9.728 9.73084 V 23.800146 12.558594 h -9.73084 z"
     id="path449"
     inkscape:connector-curvature="0"
     style="stroke-width:0.33956492" />
  <path
     d="m 733.84961,50.4375 v 20.25 20.255859 h 60.75586 60.76367 V 70.6875 50.4375 h -60.76367 z"
     transform="scale(0.5)"
     id="path445" />
  <path
     d="m 860.43164,50.4375 v 20.25 20.255859 h 62.02344 62.02734 V 70.6875 50.4375 h -62.02734 z"
     transform="scale(0.5)"
     id="path443" />
  <path
     d="m 989.54688,50.4375 v 20.25 20.255859 h 62.02152 62.0273 V 70.6875 50.4375 h -62.0273 z"
     transform="scale(0.5)"
     id="path441" />
  <path
     d="m 1118.6602,50.4375 v 20.25 20.255859 h 62.0214 62.0293 V 70.6875 50.4375 h -62.0293 z"
     transform="scale(0.5)"
     id="path439" />
  <path
     d="m 1247.7734,50.4375 v 20.25 20.255859 h 62.0235 62.0273 V 70.6875 50.4375 h -62.0273 z"
     transform="scale(0.5)"
     id="path437" />
  <path
     d="m 9.8007812,52.970703 v 20.25 20.255859 H 71.822266 133.84961 v -20.255859 -20.25 H 71.822266 Z"
     transform="scale(0.5)"
     id="path435" />
  <path
     d="m 138.91406,52.970703 v 20.25 20.255859 h 62.02149 62.02929 v -20.255859 -20.25 h -62.02929 z"
     transform="scale(0.5)"
     id="path433" />
  <path
     d="m 268.0293,52.970703 v 20.25 20.255859 h 62.02148 62.02734 v -20.255859 -20.25 h -62.02734 z"
     transform="scale(0.5)"
     id="path431" />
  <path
     d="m 397.14258,52.970703 v 20.25 20.255859 h 62.02148 62.02735 v -20.255859 -20.25 h -62.02735 z"
     transform="scale(0.5)"
     id="path429" />
  <path
     d="m 526.25586,52.970703 v 20.25 20.255859 h 62.02344 62.02734 v -20.255859 -20.25 H 588.2793 Z"
     transform="scale(0.5)"
     id="path427" />
  <path
     d="m 1652.834,52.970703 v 20.25 20.255859 h 60.7617 60.7617 v -20.255859 -20.25 h -60.7617 z"
     transform="scale(0.5)"
     id="path425" />
  <path
     d="m 1779.416,52.970703 v 20.25 20.255859 h 62.0293 62.0274 v -20.255859 -20.25 h -62.0274 z"
     transform="scale(0.5)"
     id="path423" />
  <path
     d="m 1908.5312,52.970703 v 20.25 20.255859 h 62.0274 62.0273 v -20.255859 -20.25 h -62.0273 z"
     transform="scale(0.5)"
     id="path421" />
  <path
     d="m 2037.6445,52.970703 v 20.25 20.255859 h 62.0274 62.0234 v -20.255859 -20.25 h -62.0234 z"
     transform="scale(0.5)"
     id="path419" />
  <path
     d="m 2166.7578,52.970703 v 20.25 20.255859 h 62.0293 62.0215 v -20.255859 -20.25 h -62.0215 z"
     transform="scale(0.5)"
     id="path417" />
  <path
     d="m 733.84961,96.007812 v 20.249998 20.25586 h 60.75586 60.76367 V 116.25781 96.007812 h -60.76367 z"
     transform="scale(0.5)"
     id="path415" />
  <path
     d="m 860.43164,96.007812 v 20.249998 20.25586 h 62.02344 62.02734 V 116.25781 96.007812 h -62.02734 z"
     transform="scale(0.5)"
     id="path413" />
  <path
     d="m 989.54688,96.007812 v 20.249998 20.25586 h 62.02152 62.0273 V 116.25781 96.007812 h -62.0273 z"
     transform="scale(0.5)"
     id="path411" />
  <path
     d="m 1118.6602,96.007812 v 20.249998 20.25586 h 62.0214 62.0293 V 116.25781 96.007812 h -62.0293 z"
     transform="scale(0.5)"
     id="path409" />
  <path
     d="m 1247.7734,96.007812 v 20.249998 20.25586 h 62.0235 62.0273 V 116.25781 96.007812 h -62.0273 z"
     transform="scale(0.5)"
     id="path407" />
  <path
     d="m 9.8007812,98.539062 v 20.249998 20.25586 H 71.822266 133.84961 V 118.78906 98.539062 H 71.822266 Z"
     transform="scale(0.5)"
     id="path405" />
  <path
     d="m 138.91406,98.539062 v 20.249998 20.25586 h 62.02149 62.02929 V 118.78906 98.539062 h -62.02929 z"
     transform="scale(0.5)"
     id="path403" />
  <path
     d="m 268.0293,98.539062 v 20.249998 20.25586 h 62.02148 62.02734 V 118.78906 98.539062 h -62.02734 z"
     transform="scale(0.5)"
     id="path401" />
  <path
     d="m 397.14258,98.539062 v 20.249998 20.25586 h 62.02148 62.02735 V 118.78906 98.539062 h -62.02735 z"
     transform="scale(0.5)"
     id="path399" />
  <path
     d="m 526.25586,98.539062 v 20.249998 20.25586 h 62.02344 62.02734 V 118.78906 98.539062 H 588.2793 Z"
     transform="scale(0.5)"
     id="path397" />
  <path
     d="m 1652.834,98.539062 v 20.249998 20.25586 h 60.7617 60.7617 V 118.78906 98.539062 h -60.7617 z"
     transform="scale(0.5)"
     id="path395" />
  <path
     d="m 1779.416,98.539062 v 20.249998 20.25586 h 62.0293 62.0274 V 118.78906 98.539062 h -62.0274 z"
     transform="scale(0.5)"
     id="path393" />
  <path
     d="m 1908.5312,98.539062 v 20.249998 20.25586 h 62.0274 62.0273 V 118.78906 98.539062 h -62.0273 z"
     transform="scale(0.5)"
     id="path391" />
  <path
     d="m 2037.6445,98.539062 v 20.249998 20.25586 h 62.0274 62.0234 V 118.78906 98.539062 h -62.0234 z"
     transform="scale(0.5)"
     id="path389" />
  <path
     d="m 2166.7578,98.539062 v 20.249998 20.25586 h 62.0293 62.0215 V 118.78906 98.539062 h -62.0215 z"
     transform="scale(0.5)"
     id="path387" />
  <path
     d="m 733.84961,156.76367 v 20.25586 20.25 h 60.75586 60.76367 v -20.25 -20.25586 h -60.76367 z"
     transform="scale(0.5)"
     id="path381" />
  <path
     d="m 860.43164,156.76367 v 20.25586 20.25 h 62.02344 62.02734 v -20.25 -20.25586 h -62.02734 z"
     transform="scale(0.5)"
     id="path379" />
  <path
     d="m 989.54688,156.76367 v 20.25586 20.25 h 62.02152 62.0273 v -20.25 -20.25586 h -62.0273 z"
     transform="scale(0.5)"
     id="path377" />
  <path
     d="m 1118.6602,156.76367 v 20.25586 20.25 h 62.0214 62.0293 v -20.25 -20.25586 h -62.0293 z"
     transform="scale(0.5)"
     id="path375" />
  <path
     d="m 1247.7734,156.76367 v 20.25586 20.25 h 62.0235 62.0273 v -20.25 -20.25586 h -62.0273 z"
     transform="scale(0.5)"
     id="path373" />
  <path
     d="m 9.8007812,159.29492 v 20.25781 20.25 H 71.822266 133.84961 v -20.25 -20.25781 H 71.822266 Z"
     transform="scale(0.5)"
     id="path371" />
  <path
     d="m 138.91406,159.29492 v 20.25781 20.25 h 62.02149 62.02929 v -20.25 -20.25781 h -62.02929 z"
     transform="scale(0.5)"
     id="path369" />
  <path
     d="m 268.0293,159.29492 v 20.25781 20.25 h 62.02148 62.02734 v -20.25 -20.25781 h -62.02734 z"
     transform="scale(0.5)"
     id="path367" />
  <path
     d="m 397.14258,159.29492 v 20.25781 20.25 h 62.02148 62.02735 v -20.25 -20.25781 h -62.02735 z"
     transform="scale(0.5)"
     id="path365" />
  <path
     d="m 526.25586,159.29492 v 20.25781 20.25 h 62.02344 62.02734 v -20.25 -20.25781 H 588.2793 Z"
     transform="scale(0.5)"
     id="path363" />
  <path
     d="m 1652.834,159.29492 v 20.25781 20.25 h 60.7617 60.7617 v -20.25 -20.25781 h -60.7617 z"
     transform="scale(0.5)"
     id="path361" />
  <path
     d="m 1779.416,159.29492 v 20.25781 20.25 h 62.0293 62.0274 v -20.25 -20.25781 h -62.0274 z"
     transform="scale(0.5)"
     id="path359" />
  <path
     d="m 1908.5312,159.29492 v 20.25781 20.25 h 62.0274 62.0273 v -20.25 -20.25781 h -62.0273 z"
     transform="scale(0.5)"
     id="path357" />
  <path
     d="m 2037.6445,159.29492 v 20.25781 20.25 h 62.0274 62.0234 v -20.25 -20.25781 h -62.0234 z"
     transform="scale(0.5)"
     id="path355" />
  <path
     d="m 2166.7578,159.29492 v 20.25781 20.25 h 62.0293 62.0215 v -20.25 -20.25781 h -62.0215 z"
     transform="scale(0.5)"
     id="path353" />
  <path
     d="m 733.84961,202.33398 v 20.25586 20.25 h 60.75586 60.76367 v -20.25 -20.25586 h -60.76367 z"
     transform="scale(0.5)"
     id="path351" />
  <path
     d="m 860.43164,202.33398 v 20.25586 20.25 h 62.02344 62.02734 v -20.25 -20.25586 h -62.02734 z"
     transform="scale(0.5)"
     id="path349" />
  <path
     d="m 989.54688,202.33398 v 20.25586 20.25 h 62.02152 62.0273 v -20.25 -20.25586 h -62.0273 z"
     transform="scale(0.5)"
     id="path347" />
  <path
     d="m 1118.6602,202.33398 v 20.25586 20.25 h 62.0214 62.0293 v -20.25 -20.25586 h -62.0293 z"
     transform="scale(0.5)"
     id="path345" />
  <path
     d="m 1247.7734,202.33398 v 20.25586 20.25 h 62.0235 62.0273 v -20.25 -20.25586 h -62.0273 z"
     transform="scale(0.5)"
     id="path343" />
  <path
     d="m 9.8007812,204.86523 v 20.25586 20.25 H 71.822266 133.84961 v -20.25 -20.25586 H 71.822266 Z"
     transform="scale(0.5)"
     id="path341" />
  <path
     d="m 138.91406,204.86523 v 20.25586 20.25 h 62.02149 62.02929 v -20.25 -20.25586 h -62.02929 z"
     transform="scale(0.5)"
     id="path339" />
  <path
     d="m 268.0293,204.86523 v 20.25586 20.25 h 62.02148 62.02734 v -20.25 -20.25586 h -62.02734 z"
     transform="scale(0.5)"
     id="path337" />
  <path
     d="m 397.14258,204.86523 v 20.25586 20.25 h 62.02148 62.02735 v -20.25 -20.25586 h -62.02735 z"
     transform="scale(0.5)"
     id="path335" />
  <path
     d="m 526.25586,204.86523 v 20.25586 20.25 h 62.02344 62.02734 v -20.25 -20.25586 H 588.2793 Z"
     transform="scale(0.5)"
     id="path333" />
  <path
     d="m 1652.834,204.86523 v 20.25586 20.25 h 60.7617 60.7617 v -20.25 -20.25586 h -60.7617 z"
     transform="scale(0.5)"
     id="path331" />
  <path
     d="m 1779.416,204.86523 v 20.25586 20.25 h 62.0293 62.0274 v -20.25 -20.25586 h -62.0274 z"
     transform="scale(0.5)"
     id="path329" />
  <path
     d="m 1908.5312,204.86523 v 20.25586 20.25 h 62.0274 62.0273 v -20.25 -20.25586 h -62.0273 z"
     transform="scale(0.5)"
     id="path327" />
  <path
     d="m 2037.6445,204.86523 v 20.25586 20.25 h 62.0274 62.0234 v -20.25 -20.25586 h -62.0234 z"
     transform="scale(0.5)"
     id="path325" />
  <path
     d="m 2166.7578,204.86523 v 20.25586 20.25 h 62.0293 62.0215 v -20.25 -20.25586 h -62.0215 z"
     transform="scale(0.5)"
     id="path323" />
  <path
     d="m 733.84961,263.0957 v 20.25 20.25586 h 60.75586 60.76367 v -20.25586 -20.25 h -60.76367 z"
     transform="scale(0.5)"
     id="path317" />
  <path
     d="m 860.43164,263.0957 v 20.25 20.25586 h 62.02344 62.02734 v -20.25586 -20.25 h -62.02734 z"
     transform="scale(0.5)"
     id="path315" />
  <path
     d="m 989.54688,263.0957 v 20.25 20.25586 h 62.02152 62.0273 v -20.25586 -20.25 h -62.0273 z"
     transform="scale(0.5)"
     id="path313" />
  <path
     d="m 1118.6602,263.0957 v 20.25 20.25586 h 62.0214 62.0293 v -20.25586 -20.25 h -62.0293 z"
     transform="scale(0.5)"
     id="path311" />
  <path
     d="m 1247.7734,263.0957 v 20.25 20.25586 h 62.0235 62.0273 v -20.25586 -20.25 h -62.0273 z"
     transform="scale(0.5)"
     id="path309" />
  <path
     d="m 9.8007812,265.62695 v 20.25 20.25782 H 71.822266 133.84961 v -20.25782 -20.25 H 71.822266 Z"
     transform="scale(0.5)"
     id="path307" />
  <path
     d="m 138.91406,265.62695 v 20.25 20.25782 h 62.02149 62.02929 v -20.25782 -20.25 h -62.02929 z"
     transform="scale(0.5)"
     id="path305" />
  <path
     d="m 268.0293,265.62695 v 20.25 20.25782 h 62.02148 62.02734 v -20.25782 -20.25 h -62.02734 z"
     transform="scale(0.5)"
     id="path303" />
  <path
     d="m 397.14258,265.62695 v 20.25 20.25782 h 62.02148 62.02735 v -20.25782 -20.25 h -62.02735 z"
     transform="scale(0.5)"
     id="path301" />
  <path
     d="m 526.25586,265.62695 v 20.25 20.25782 h 62.02344 62.02734 v -20.25782 -20.25 H 588.2793 Z"
     transform="scale(0.5)"
     id="path299" />
  <path
     d="m 1652.834,265.62695 v 20.25 20.25782 h 60.7617 60.7617 v -20.25782 -20.25 h -60.7617 z"
     transform="scale(0.5)"
     id="path297" />
  <path
     d="m 1779.416,265.62695 v 20.25 20.25782 h 62.0293 62.0274 v -20.25782 -20.25 h -62.0274 z"
     transform="scale(0.5)"
     id="path295" />
  <path
     d="m 1908.5312,265.62695 v 20.25 20.25782 h 62.0274 62.0273 v -20.25782 -20.25 h -62.0273 z"
     transform="scale(0.5)"
     id="path293" />
  <path
     d="m 2037.6445,265.62695 v 20.25 20.25782 h 62.0274 62.0234 v -20.25782 -20.25 h -62.0234 z"
     transform="scale(0.5)"
     id="path291" />
  <path
     d="m 2166.7578,265.62695 v 20.25 20.25782 h 62.0293 62.0215 v -20.25782 -20.25 h -62.0215 z"
     transform="scale(0.5)"
     id="path289" />
  <path
     d="m 733.84961,308.66602 v 20.25 20.25586 h 60.75586 60.76367 v -20.25586 -20.25 h -60.76367 z"
     transform="scale(0.5)"
     id="path287" />
  <path
     d="m 860.43164,308.66602 v 20.25 20.25586 h 62.02344 62.02734 v -20.25586 -20.25 h -62.02734 z"
     transform="scale(0.5)"
     id="path285" />
  <path
     d="m 989.54688,308.66602 v 20.25 20.25586 h 62.02152 62.0273 v -20.25586 -20.25 h -62.0273 z"
     transform="scale(0.5)"
     id="path283" />
  <path
     d="m 1118.6602,308.66602 v 20.25 20.25586 h 62.0214 62.0293 v -20.25586 -20.25 h -62.0293 z"
     transform="scale(0.5)"
     id="path281" />
  <path
     d="m 1247.7734,308.66602 v 20.25 20.25586 h 62.0235 62.0273 v -20.25586 -20.25 h -62.0273 z"
     transform="scale(0.5)"
     id="path279" />
  <path
     d="m 9.8007812,311.19727 v 20.25 20.25585 H 71.822266 133.84961 v -20.25585 -20.25 H 71.822266 Z"
     transform="scale(0.5)"
     id="path277" />
  <path
     d="m 138.91406,311.19727 v 20.25 20.25585 h 62.02149 62.02929 v -20.25585 -20.25 h -62.02929 z"
     transform="scale(0.5)"
     id="path275" />
  <path
     d="m 268.0293,311.19727 v 20.25 20.25585 h 62.02148 62.02734 v -20.25585 -20.25 h -62.02734 z"
     transform="scale(0.5)"
     id="path273" />
  <path
     d="m 397.14258,311.19727 v 20.25 20.25585 h 62.02148 62.02735 v -20.25585 -20.25 h -62.02735 z"
     transform="scale(0.5)"
     id="path271" />
  <path
     d="m 526.25586,311.19727 v 20.25 20.25585 h 62.02344 62.02734 v -20.25585 -20.25 H 588.2793 Z"
     transform="scale(0.5)"
     id="path269" />
  <path
     d="m 1652.834,311.19727 v 20.25 20.25585 h 60.7617 60.7617 v -20.25585 -20.25 h -60.7617 z"
     transform="scale(0.5)"
     id="path267" />
  <path
     d="m 1779.416,311.19727 v 20.25 20.25585 h 62.0293 62.0274 v -20.25585 -20.25 h -62.0274 z"
     transform="scale(0.5)"
     id="path265" />
  <path
     d="m 1908.5312,311.19727 v 20.25 20.25585 h 62.0274 62.0273 v -20.25585 -20.25 h -62.0273 z"
     transform="scale(0.5)"
     id="path263" />
  <path
     d="m 2037.6445,311.19727 v 20.25 20.25585 h 62.0274 62.0234 v -20.25585 -20.25 h -62.0234 z"
     transform="scale(0.5)"
     id="path261" />
  <path
     d="m 2166.7578,311.19727 v 20.25 20.25585 h 62.0293 62.0215 v -20.25585 -20.25 h -62.0215 z"
     transform="scale(0.5)"
     id="path259" />
  <path
     d="m 79.837891,533.98438 c -33.882,0 -62.35711,0.75554 -63.28711,1.68554 -0.93,0.93 -1.693359,10.32672 -1.693359,20.88672 v 19.19922 l 63.294922,-0.7207 63.294926,-0.71875 v -20.16602 -20.16601 z"
     transform="scale(0.5)"
     id="path249" />
  <path
     d="m 146.50977,533.98438 v 20.25 20.25585 h 62.02343 62.02735 v -20.25585 -20.25 H 208.5332 Z"
     transform="scale(0.5)"
     id="path247" />
  <path
     d="m 275.625,533.98438 v 20.25 20.25585 h 62.02148 62.02735 v -20.25585 -20.25 h -62.02735 z"
     transform="scale(0.5)"
     id="path245" />
  <path
     d="m 404.73242,533.98438 v 20.25 20.25585 h 62.02735 62.02929 v -20.25585 -20.25 h -62.02929 z"
     transform="scale(0.5)"
     id="path243" />
  <path
     d="m 533.8457,533.98438 v 20.25 20.25585 h 62.0293 62.02734 v -20.25585 -20.25 H 595.875 Z"
     transform="scale(0.5)"
     id="path241" />
  <path
     d="m 738.91406,533.98438 v 18.98437 18.98828 h 62.02149 62.02929 v -18.98828 -18.98437 h -62.02929 z"
     transform="scale(0.5)"
     id="path239" />
  <path
     d="m 868.0293,533.98438 v 18.98437 18.98828 h 62.02148 62.02734 v -18.98828 -18.98437 h -62.02734 z"
     transform="scale(0.5)"
     id="path237" />
  <path
     d="m 997.14258,533.98438 v 18.98437 18.98828 h 62.02152 62.0273 v -18.98828 -18.98437 h -62.0273 z"
     transform="scale(0.5)"
     id="path235" />
  <path
     d="m 1126.2559,533.98438 v 18.98437 18.98828 h 62.0234 62.0273 v -18.98828 -18.98437 h -62.0273 z"
     transform="scale(0.5)"
     id="path233" />
  <path
     d="m 1255.3711,533.98438 v 18.98437 18.98828 h 60.7559 60.7617 v -18.98828 -18.98437 h -60.7617 z"
     transform="scale(0.5)"
     id="path231" />
  <path
     d="M 1657.8984,536.51562 V 555.5 574.49023 h 62.0274 62.0234 V 555.5 536.51562 h -62.0234 z"
     transform="scale(0.5)"
     id="path229" />
  <path
     d="M 1787.0117,536.51562 V 555.5 574.49023 h 62.0293 62.0215 V 555.5 536.51562 h -62.0215 z"
     transform="scale(0.5)"
     id="path227" />
  <path
     d="M 1916.127,536.51562 V 555.5 574.49023 h 62.0273 62.0215 V 555.5 536.51562 h -62.0215 z"
     transform="scale(0.5)"
     id="path225" />
  <path
     d="M 2045.2402,536.51562 V 555.5 574.49023 h 62.0274 62.0234 V 555.5 536.51562 h -62.0234 z"
     transform="scale(0.5)"
     id="path223" />
  <path
     d="M 2174.3535,536.51562 V 555.5 574.49023 h 60.7637 60.7558 V 555.5 536.51562 h -60.7558 z"
     transform="scale(0.5)"
     id="path221" />
  <path
     d="m 738.91406,577.02148 v 20.25 20.25586 h 62.02149 62.02929 v -20.25586 -20.25 h -62.02929 z"
     transform="scale(0.5)"
     id="path219" />
  <path
     d="m 868.0293,577.02148 v 20.25 20.25586 h 62.02148 62.02734 v -20.25586 -20.25 h -62.02734 z"
     transform="scale(0.5)"
     id="path217" />
  <path
     d="m 997.14258,577.02148 v 20.25 20.25586 h 62.02152 62.0273 v -20.25586 -20.25 h -62.0273 z"
     transform="scale(0.5)"
     id="path215" />
  <path
     d="m 1126.2559,577.02148 v 20.25 20.25586 h 62.0234 62.0273 v -20.25586 -20.25 h -62.0273 z"
     transform="scale(0.5)"
     id="path213" />
  <path
     d="m 1255.3711,577.02148 v 20.25 20.25586 h 60.7559 60.7617 v -20.25586 -20.25 h -60.7617 z"
     transform="scale(0.5)"
     id="path211" />
  <path
     d="m 79.837891,579.55469 c -33.882,0 -62.35711,0.75554 -63.28711,1.68554 -0.93,0.93 -1.693359,10.32477 -1.693359,20.88477 v 19.20117 l 63.294922,-0.7207 63.294926,-0.71875 V 599.7207 579.55469 Z"
     transform="scale(0.5)"
     id="path209" />
  <path
     d="m 146.50977,579.55469 v 20.25 20.25586 h 62.02343 62.02735 v -20.25586 -20.25 H 208.5332 Z"
     transform="scale(0.5)"
     id="path207" />
  <path
     d="m 275.625,579.55469 v 20.25 20.25586 h 62.02148 62.02735 v -20.25586 -20.25 h -62.02735 z"
     transform="scale(0.5)"
     id="path205" />
  <path
     d="m 404.73242,579.55469 v 20.25 20.25586 h 62.02735 62.02929 v -20.25586 -20.25 h -62.02929 z"
     transform="scale(0.5)"
     id="path203" />
  <path
     d="m 533.8457,579.55469 v 20.25 20.25586 h 62.0293 62.02734 v -20.25586 -20.25 H 595.875 Z"
     transform="scale(0.5)"
     id="path201" />
  <path
     d="m 1657.8984,579.55469 v 20.25 20.25586 h 62.0274 62.0234 v -20.25586 -20.25 h -62.0234 z"
     transform="scale(0.5)"
     id="path199" />
  <path
     d="m 1787.0117,579.55469 v 20.25 20.25586 h 62.0293 62.0215 v -20.25586 -20.25 h -62.0215 z"
     transform="scale(0.5)"
     id="path197" />
  <path
     d="m 1916.127,579.55469 v 20.25 20.25586 h 62.0273 62.0215 v -20.25586 -20.25 h -62.0215 z"
     transform="scale(0.5)"
     id="path195" />
  <path
     d="m 2045.2402,579.55469 v 20.25 20.25586 h 62.0274 62.0234 v -20.25586 -20.25 h -62.0234 z"
     transform="scale(0.5)"
     id="path193" />
  <path
     d="m 2174.3535,579.55469 v 20.25 20.25586 h 60.7637 60.7558 v -20.25586 -20.25 h -60.7558 z"
     transform="scale(0.5)"
     id="path191" />
  <path
     d="m 738.91406,637.77734 v 20.25586 20.25 h 62.02149 62.02929 v -20.25 -20.25586 h -62.02929 z"
     transform="scale(0.5)"
     id="path185" />
  <path
     d="m 868.0293,637.77734 v 20.25586 20.25 h 62.02148 62.02734 v -20.25 -20.25586 h -62.02734 z"
     transform="scale(0.5)"
     id="path183" />
  <path
     d="m 997.14258,637.77734 v 20.25586 20.25 h 62.02152 62.0273 v -20.25 -20.25586 h -62.0273 z"
     transform="scale(0.5)"
     id="path181" />
  <path
     d="m 1126.2559,637.77734 v 20.25586 20.25 h 62.0234 62.0273 v -20.25 -20.25586 h -62.0273 z"
     transform="scale(0.5)"
     id="path179" />
  <path
     d="m 1255.3711,637.77734 v 20.25586 20.25 h 60.7559 60.7617 v -20.25 -20.25586 h -60.7617 z"
     transform="scale(0.5)"
     id="path177" />
  <path
     d="m 79.837891,640.31055 c -33.882,0 -62.35711,0.76154 -63.28711,1.68554 -0.93,0.93 -1.693359,10.33077 -1.693359,20.88477 v 19.20117 l 63.294922,-0.71484 63.294926,-0.71875 v -20.16602 -20.17187 z"
     transform="scale(0.5)"
     id="path175" />
  <path
     d="m 146.50977,640.31055 v 20.25586 20.25 h 62.02343 62.02735 v -20.25 -20.25586 H 208.5332 Z"
     transform="scale(0.5)"
     id="path173" />
  <path
     d="m 275.625,640.31055 v 20.25586 20.25 h 62.02148 62.02735 v -20.25 -20.25586 h -62.02735 z"
     transform="scale(0.5)"
     id="path171" />
  <path
     d="m 404.73242,640.31055 v 20.25586 20.25 h 62.02735 62.02929 v -20.25 -20.25586 h -62.02929 z"
     transform="scale(0.5)"
     id="path169" />
  <path
     d="m 533.8457,640.31055 v 20.25586 20.25 h 62.0293 62.02734 v -20.25 -20.25586 H 595.875 Z"
     transform="scale(0.5)"
     id="path167" />
  <path
     d="m 1657.8984,640.31055 v 20.25586 20.25 h 62.0274 62.0234 v -20.25 -20.25586 h -62.0234 z"
     transform="scale(0.5)"
     id="path165" />
  <path
     d="m 1787.0117,640.31055 v 20.25586 20.25 h 62.0293 62.0215 v -20.25 -20.25586 h -62.0215 z"
     transform="scale(0.5)"
     id="path163" />
  <path
     d="m 1916.127,640.31055 v 20.25586 20.25 h 62.0273 62.0215 v -20.25 -20.25586 h -62.0215 z"
     transform="scale(0.5)"
     id="path161" />
  <path
     d="m 2045.2402,640.31055 v 20.25586 20.25 h 62.0274 62.0234 v -20.25 -20.25586 h -62.0234 z"
     transform="scale(0.5)"
     id="path159" />
  <path
     d="m 2174.3535,640.31055 v 20.25586 20.25 h 60.7637 60.7558 v -20.25 -20.25586 h -60.7558 z"
     transform="scale(0.5)"
     id="path157" />
  <path
     d="m 738.91406,683.34766 v 20.25586 20.25 h 62.02149 62.02929 v -20.25 -20.25586 h -62.02929 z"
     transform="scale(0.5)"
     id="path151" />
  <path
     d="m 868.0293,683.34766 v 20.25586 20.25 h 62.02148 62.02734 v -20.25 -20.25586 h -62.02734 z"
     transform="scale(0.5)"
     id="path149" />
  <path
     d="m 997.14258,683.34766 v 20.25586 20.25 h 62.02152 62.0273 v -20.25 -20.25586 h -62.0273 z"
     transform="scale(0.5)"
     id="path147" />
  <path
     d="m 1126.2559,683.34766 v 20.25586 20.25 h 62.0234 62.0273 v -20.25 -20.25586 h -62.0273 z"
     transform="scale(0.5)"
     id="path145" />
  <path
     d="m 1255.3711,683.34766 v 20.25586 20.25 h 60.7559 60.7617 v -20.25 -20.25586 h -60.7617 z"
     transform="scale(0.5)"
     id="path143" />
  <path
     d="m 79.837891,685.87891 c -33.882,0 -62.35711,0.7635 -63.28711,1.6875 -0.93,0.93 -1.693359,10.33076 -1.693359,20.88476 v 19.20117 l 63.294922,-0.7207 63.294926,-0.71289 v -20.17383 -20.16601 z"
     transform="scale(0.5)"
     id="path141" />
  <path
     d="m 146.50977,685.87891 v 20.25781 20.25 h 62.02343 62.02735 v -20.25 -20.25781 H 208.5332 Z"
     transform="scale(0.5)"
     id="path139" />
  <path
     d="m 275.625,685.87891 v 20.25781 20.25 h 62.02148 62.02735 v -20.25 -20.25781 h -62.02735 z"
     transform="scale(0.5)"
     id="path137" />
  <path
     d="m 404.73242,685.87891 v 20.25781 20.25 h 62.02735 62.02929 v -20.25 -20.25781 h -62.02929 z"
     transform="scale(0.5)"
     id="path135" />
  <path
     d="m 533.8457,685.87891 v 20.25781 20.25 h 62.0293 62.02734 v -20.25 -20.25781 H 595.875 Z"
     transform="scale(0.5)"
     id="path133" />
  <path
     d="m 1657.8984,685.87891 v 20.25781 20.25 h 62.0274 62.0234 v -20.25 -20.25781 h -62.0234 z"
     transform="scale(0.5)"
     id="path131" />
  <path
     d="m 1787.0117,685.87891 v 20.25781 20.25 h 62.0293 62.0215 v -20.25 -20.25781 h -62.0215 z"
     transform="scale(0.5)"
     id="path129" />
  <path
     d="m 1916.127,685.87891 v 20.25781 20.25 h 62.0273 62.0215 v -20.25 -20.25781 h -62.0215 z"
     transform="scale(0.5)"
     id="path127" />
  <path
     d="m 2045.2402,685.87891 v 20.25781 20.25 h 62.0274 62.0234 v -20.25 -20.25781 h -62.0234 z"
     transform="scale(0.5)"
     id="path125" />
  <path
     d="m 2174.3535,685.87891 v 20.25781 20.25 h 60.7637 60.7558 v -20.25 -20.25781 h -60.7558 z"
     transform="scale(0.5)"
     id="path123" />
  <path
     d="m 738.91406,744.10938 v 20.25 20.25585 h 62.02149 62.02929 v -20.25585 -20.25 h -62.02929 z"
     transform="scale(0.5)"
     id="path121" />
  <path
     d="m 868.0293,744.10938 v 20.25 20.25585 h 62.02148 62.02734 v -20.25585 -20.25 h -62.02734 z"
     transform="scale(0.5)"
     id="path119" />
  <path
     d="m 997.14258,744.10938 v 20.25 20.25585 h 62.02152 62.0273 v -20.25585 -20.25 h -62.0273 z"
     transform="scale(0.5)"
     id="path117" />
  <path
     d="m 1126.2559,744.10938 v 20.25 20.25585 h 62.0234 62.0273 v -20.25585 -20.25 h -62.0273 z"
     transform="scale(0.5)"
     id="path115" />
  <path
     d="m 1255.3711,744.10938 v 20.25 20.25585 h 60.7559 60.7617 v -20.25585 -20.25 h -60.7617 z"
     transform="scale(0.5)"
     id="path113" />
  <path
     d="m 17.396484,746.64258 v 20.25 20.25586 h 62.021485 62.029301 v -20.25586 -20.25 H 79.417969 Z"
     transform="scale(0.5)"
     id="path111" />
  <path
     d="m 146.50977,746.64258 v 20.25 20.25586 h 62.02343 62.02735 v -20.25586 -20.25 H 208.5332 Z"
     transform="scale(0.5)"
     id="path109" />
  <path
     d="m 275.625,746.64258 v 20.25 20.25586 h 62.02148 62.02735 v -20.25586 -20.25 h -62.02735 z"
     transform="scale(0.5)"
     id="path107" />
  <path
     d="m 404.73242,746.64258 v 20.25 20.25586 h 62.02735 62.02929 v -20.25586 -20.25 h -62.02929 z"
     transform="scale(0.5)"
     id="path105" />
  <path
     d="m 533.8457,746.64258 v 20.25 20.25586 h 62.0293 62.02734 v -20.25586 -20.25 H 595.875 Z"
     transform="scale(0.5)"
     id="path103" />
  <path
     d="m 1657.8984,746.64258 v 20.25 20.25586 h 62.0274 62.0234 v -20.25586 -20.25 h -62.0234 z"
     transform="scale(0.5)"
     id="path101" />
  <path
     d="m 1787.0117,746.64258 v 20.25 20.25586 h 62.0293 62.0215 v -20.25586 -20.25 h -62.0215 z"
     transform="scale(0.5)"
     id="path99" />
  <path
     d="m 1916.127,746.64258 v 20.25 20.25586 h 62.0273 62.0215 v -20.25586 -20.25 h -62.0215 z"
     transform="scale(0.5)"
     id="path97" />
  <path
     d="m 2045.2402,746.64258 v 20.25 20.25586 h 62.0274 62.0234 v -20.25586 -20.25 h -62.0234 z"
     transform="scale(0.5)"
     id="path95" />
  <path
     d="m 2174.3535,746.64258 v 20.25 20.25586 h 60.7637 60.7558 v -20.25586 -20.25 h -60.7558 z"
     transform="scale(0.5)"
     id="path93" />
  <path
     d="m 738.91406,789.67969 v 20.25 20.25586 h 62.02149 62.02929 v -20.25586 -20.25 h -62.02929 z"
     transform="scale(0.5)"
     id="path87" />
  <path
     d="m 868.0293,789.67969 v 20.25 20.25586 h 62.02148 62.02734 v -20.25586 -20.25 h -62.02734 z"
     transform="scale(0.5)"
     id="path85" />
  <path
     d="m 997.14258,789.67969 v 20.25 20.25586 h 62.02152 62.0273 v -20.25586 -20.25 h -62.0273 z"
     transform="scale(0.5)"
     id="path83" />
  <path
     d="m 1126.2559,789.67969 v 20.25 20.25586 h 62.0234 62.0273 v -20.25586 -20.25 h -62.0273 z"
     transform="scale(0.5)"
     id="path81" />
  <path
     d="m 1255.3711,789.67969 v 20.25 20.25586 h 60.7559 60.7617 v -20.25586 -20.25 h -60.7617 z"
     transform="scale(0.5)"
     id="path79" />
  <path
     d="m 17.396484,792.21094 v 20.25 20.25781 h 62.021485 62.029301 v -20.25781 -20.25 H 79.417969 Z"
     transform="scale(0.5)"
     id="path77" />
  <path
     d="m 146.50977,792.21094 v 20.25 20.25781 h 62.02343 62.02735 v -20.25781 -20.25 H 208.5332 Z"
     transform="scale(0.5)"
     id="path75" />
  <path
     d="m 275.625,792.21094 v 20.25 20.25781 h 62.02148 62.02735 v -20.25781 -20.25 h -62.02735 z"
     transform="scale(0.5)"
     id="path73" />
  <path
     d="m 404.73242,792.21094 v 20.25 20.25781 h 62.02735 62.02929 v -20.25781 -20.25 h -62.02929 z"
     transform="scale(0.5)"
     id="path71" />
  <path
     d="m 533.8457,792.21094 v 20.25 20.25781 h 62.0293 62.02734 v -20.25781 -20.25 H 595.875 Z"
     transform="scale(0.5)"
     id="path69" />
  <path
     d="m 1657.8984,792.21094 v 20.25 20.25781 h 62.0274 62.0234 v -20.25781 -20.25 h -62.0234 z"
     transform="scale(0.5)"
     id="path67" />
  <path
     d="m 1787.0117,792.21094 v 20.25 20.25781 h 62.0293 62.0215 v -20.25781 -20.25 h -62.0215 z"
     transform="scale(0.5)"
     id="path65" />
  <path
     d="m 1916.127,792.21094 v 20.25 20.25781 h 62.0273 62.0215 v -20.25781 -20.25 h -62.0215 z"
     transform="scale(0.5)"
     id="path63" />
  <path
     d="m 2045.2402,792.21094 v 20.25 20.25781 h 62.0274 62.0234 v -20.25781 -20.25 h -62.0234 z"
     transform="scale(0.5)"
     id="path61" />
  <path
     d="m 2174.3535,792.21094 v 20.25 20.25781 h 60.7637 60.7558 v -20.25781 -20.25 h -60.7558 z"
     transform="scale(0.5)"
     id="path0" />
  <path
     d="m 730.64962,37.006331 v 11.24155 11.24155 h 9.728 9.73084 v -11.24155 -11.24155 h -9.73084 z"
     id="path449-5"
     inkscape:connector-curvature="0"
     style="stroke-width:0.33956495" />
  <path
     d="m 754.47305,12.558358 v 11.24155 11.24155 h 9.728 9.73084 v -11.24155 -11.24155 h -9.73084 z"
     id="path449-3"
     inkscape:connector-curvature="0"
     style="stroke-width:0.33956495" />
  <path
     d="M 754.47304,37.00639 V 48.24795 59.4895 h 9.728 9.73084 V 48.24795 37.00639 h -9.73084 z"
     id="path449-5-5"
     inkscape:connector-curvature="0"
     style="stroke-width:0.33956498" />
  <path
     d="m 730.64963,65.547065 v 11.24156 11.24155 h 9.728 9.73084 v -11.24155 -11.24156 h -9.73084 z"
     id="path449-6"
     inkscape:connector-curvature="0"
     style="stroke-width:0.33956495" />
  <path
     d="m 730.64962,89.994805 v 11.241555 11.24155 h 9.728 9.73084 V 101.23636 89.994805 h -9.73084 z"
     id="path449-5-2"
     inkscape:connector-curvature="0"
     style="stroke-width:0.33956498" />
  <path
     d="m 754.47305,65.546835 v 11.24155 11.24155 h 9.728 9.73084 v -11.24155 -11.24155 h -9.73084 z"
     id="path449-3-9"
     inkscape:connector-curvature="0"
     style="stroke-width:0.33956498" />
  <path
     d="m 754.47304,89.994865 v 11.241565 11.24155 h 9.728 9.73084 V 101.23643 89.994865 h -9.73084 z"
     id="path449-5-5-1"
     inkscape:connector-curvature="0"
     style="stroke-width:0.33956501" />
  <path
     d="m 731.17904,118.488 v 11.24156 11.24155 h 9.728 9.73084 V 129.72956 118.488 h -9.73084 z"
     id="path449-2"
     inkscape:connector-curvature="0"
     style="stroke-width:0.33956495" />
  <path
     d="m 731.17903,142.93574 v 11.24155 11.24155 h 9.728 9.73084 v -11.24155 -11.24155 h -9.73084 z"
     id="path449-5-7"
     inkscape:connector-curvature="0"
     style="stroke-width:0.33956498" />
  <path
     d="m 755.00246,118.48777 v 11.24155 11.24155 h 9.728 9.73084 v -11.24155 -11.24155 h -9.73084 z"
     id="path449-3-0"
     inkscape:connector-curvature="0"
     style="stroke-width:0.33956498" />
  <path
     d="m 755.00245,142.9358 v 11.24156 11.24155 h 9.728 9.73084 V 154.17736 142.9358 h -9.73084 z"
     id="path449-5-5-9"
     inkscape:connector-curvature="0"
     style="stroke-width:0.33956501" />
  <path
     d="m 730.64963,170.89953 v 11.24156 11.24155 h 9.728 9.73084 v -11.24155 -11.24156 h -9.73084 z"
     id="path449-36"
     inkscape:connector-curvature="0"
     style="stroke-width:0.33956495" />
  <path
     d="m 730.64962,195.34727 v 11.24155 11.24155 h 9.728 9.73084 v -11.24155 -11.24155 h -9.73084 z"
     id="path449-5-0"
     inkscape:connector-curvature="0"
     style="stroke-width:0.33956498" />
  <path
     d="m 754.47305,170.8993 v 11.24155 11.24155 h 9.728 9.73084 V 182.14085 170.8993 h -9.73084 z"
     id="path449-3-6"
     inkscape:connector-curvature="0"
     style="stroke-width:0.33956498" />
  <path
     d="m 754.47304,195.34733 v 11.24156 11.24155 h 9.728 9.73084 v -11.24155 -11.24156 h -9.73084 z"
     id="path449-5-5-2"
     inkscape:connector-curvature="0"
     style="stroke-width:0.33956501" />
  <path
     d="m 730.05649,253.36087 v 11.24156 11.24155 h 9.728 9.73084 v -11.24155 -11.24156 h -9.73084 z"
     id="path449-61"
     inkscape:connector-curvature="0"
     style="stroke-width:0.33956495" />
  <path
     d="m 730.05648,277.80861 v 11.24155 11.24155 h 9.728 9.73084 v -11.24155 -11.24155 h -9.73084 z"
     id="path449-5-29"
     inkscape:connector-curvature="0"
     style="stroke-width:0.33956498" />
  <path
     d="m 753.87991,253.36064 v 11.24155 11.24155 h 9.728 9.73084 v -11.24155 -11.24155 h -9.73084 z"
     id="path449-3-3"
     inkscape:connector-curvature="0"
     style="stroke-width:0.33956498" />
  <path
     d="m 753.8799,277.80867 v 11.24156 11.24155 h 9.728 9.73084 v -11.24155 -11.24156 h -9.73084 z"
     id="path449-5-5-19"
     inkscape:connector-curvature="0"
     style="stroke-width:0.33956501" />
  <path
     d="m 730.05649,306.34935 v 11.24156 11.24155 h 9.728 9.73084 v -11.24155 -11.24156 h -9.73084 z"
     id="path449-6-4"
     inkscape:connector-curvature="0"
     style="stroke-width:0.33956498" />
  <path
     d="m 730.05648,330.79709 v 11.24155 11.24155 h 9.728 9.73084 v -11.24155 -11.24155 h -9.73084 z"
     id="path449-5-2-7"
     inkscape:connector-curvature="0"
     style="stroke-width:0.33956501" />
  <path
     d="m 753.87991,306.34912 v 11.24155 11.24155 h 9.728 9.73084 v -11.24155 -11.24155 h -9.73084 z"
     id="path449-3-9-8"
     inkscape:connector-curvature="0"
     style="stroke-width:0.33956501" />
  <path
     d="m 753.8799,330.79715 v 11.24156 11.24155 h 9.728 9.73084 v -11.24155 -11.24156 h -9.73084 z"
     id="path449-5-5-1-4"
     inkscape:connector-curvature="0"
     style="stroke-width:0.33956504" />
  <path
     d="m 730.5859,359.29028 v 11.24156 11.24155 h 9.728 9.73084 v -11.24155 -11.24156 h -9.73084 z"
     id="path449-2-5"
     inkscape:connector-curvature="0"
     style="stroke-width:0.33956498" />
  <path
     d="m 730.58589,383.73802 v 11.24155 11.24156 h 9.728 9.73084 v -11.24156 -11.24155 h -9.73084 z"
     id="path449-5-7-0"
     inkscape:connector-curvature="0"
     style="stroke-width:0.33956501" />
  <path
     d="m 754.40932,359.29005 v 11.24156 11.24154 h 9.728 9.73084 v -11.24154 -11.24156 h -9.73084 z"
     id="path449-3-0-3"
     inkscape:connector-curvature="0"
     style="stroke-width:0.33956501" />
  <path
     d="m 754.40931,383.73808 v 11.24157 11.24154 h 9.728 9.73084 v -11.24154 -11.24157 h -9.73084 z"
     id="path449-5-5-9-6"
     inkscape:connector-curvature="0"
     style="stroke-width:0.33956504" />
  <path
     d="m 730.05649,411.70182 v 11.24155 11.24155 h 9.728 9.73084 v -11.24155 -11.24155 h -9.73084 z"
     id="path449-36-1"
     inkscape:connector-curvature="0"
     style="stroke-width:0.33956498" />
  <path
     d="m 730.05648,436.14955 v 11.24156 11.24154 h 9.728 9.73084 v -11.24154 -11.24156 h -9.73084 z"
     id="path449-5-0-0"
     inkscape:connector-curvature="0"
     style="stroke-width:0.33956501" />
  <path
     d="m 753.87991,411.70159 v 11.24154 11.24155 h 9.728 9.73084 v -11.24155 -11.24154 h -9.73084 z"
     id="path449-3-6-6"
     inkscape:connector-curvature="0"
     style="stroke-width:0.33956501" />
  <path
     d="m 753.8799,436.14962 v 11.24155 11.24155 h 9.728 9.73084 v -11.24155 -11.24155 h -9.73084 z"
     id="path449-5-5-2-3"
     inkscape:connector-curvature="0"
     style="stroke-width:0.33956504" />
</svg>
