<svg id="svg" xmlns="http://www.w3.org/2000/svg" xmlns:xlink="http://www.w3.org/1999/xlink" width="400" height="149.36708860759495" viewBox="0, 0, 400,149.36708860759495"><g id="svgg"><path id="path0" d="M243.882 11.603 L 243.882 19.409 247.257 19.409 L 250.633 19.409 250.633 11.603 L 250.633 3.797 247.257 3.797 L 243.882 3.797 243.882 11.603 M251.899 11.603 L 251.899 19.409 255.274 19.409 L 258.650 19.409 258.650 11.603 L 258.650 3.797 255.274 3.797 L 251.899 3.797 251.899 11.603 M122.785 11.392 L 122.785 14.768 132.911 14.768 L 143.038 14.768 143.038 11.392 L 143.038 8.017 132.911 8.017 L 122.785 8.017 122.785 11.392 M143.882 11.392 L 143.882 14.768 154.219 14.768 L 164.557 14.768 164.557 11.392 L 164.557 8.017 154.219 8.017 L 143.882 8.017 143.882 11.392 M165.401 11.392 L 165.401 14.768 175.738 14.768 L 186.076 14.768 186.076 11.392 L 186.076 8.017 175.738 8.017 L 165.401 8.017 165.401 11.392 M186.920 11.392 L 186.920 14.768 197.257 14.768 L 207.595 14.768 207.595 11.392 L 207.595 8.017 197.257 8.017 L 186.920 8.017 186.920 11.392 M208.439 11.392 L 208.439 14.768 218.776 14.768 L 229.114 14.768 229.114 11.392 L 229.114 8.017 218.776 8.017 L 208.439 8.017 208.439 11.392 M2.110 11.814 L 2.110 15.190 12.447 15.190 L 22.785 15.190 22.785 11.814 L 22.785 8.439 12.447 8.439 L 2.110 8.439 2.110 11.814 M23.629 11.814 L 23.629 15.190 33.966 15.190 L 44.304 15.190 44.304 11.814 L 44.304 8.439 33.966 8.439 L 23.629 8.439 23.629 11.814 M45.148 11.814 L 45.148 15.190 55.485 15.190 L 65.823 15.190 65.823 11.814 L 65.823 8.439 55.485 8.439 L 45.148 8.439 45.148 11.814 M66.667 11.814 L 66.667 15.190 77.004 15.190 L 87.342 15.190 87.342 11.814 L 87.342 8.439 77.004 8.439 L 66.667 8.439 66.667 11.814 M88.186 11.814 L 88.186 15.190 98.523 15.190 L 108.861 15.190 108.861 11.814 L 108.861 8.439 98.523 8.439 L 88.186 8.439 88.186 11.814 M275.949 11.814 L 275.949 15.190 286.076 15.190 L 296.203 15.190 296.203 11.814 L 296.203 8.439 286.076 8.439 L 275.949 8.439 275.949 11.814 M297.046 11.814 L 297.046 15.190 307.384 15.190 L 317.722 15.190 317.722 11.814 L 317.722 8.439 307.384 8.439 L 297.046 8.439 297.046 11.814 M318.565 11.814 L 318.565 15.190 328.903 15.190 L 339.241 15.190 339.241 11.814 L 339.241 8.439 328.903 8.439 L 318.565 8.439 318.565 11.814 M340.084 11.814 L 340.084 15.190 350.422 15.190 L 360.759 15.190 360.759 11.814 L 360.759 8.439 350.422 8.439 L 340.084 8.439 340.084 11.814 M361.603 11.814 L 361.603 15.190 371.941 15.190 L 382.278 15.190 382.278 11.814 L 382.278 8.439 371.941 8.439 L 361.603 8.439 361.603 11.814 M122.785 18.987 L 122.785 22.363 132.911 22.363 L 143.038 22.363 143.038 18.987 L 143.038 15.612 132.911 15.612 L 122.785 15.612 122.785 18.987 M143.882 18.987 L 143.882 22.363 154.219 22.363 L 164.557 22.363 164.557 18.987 L 164.557 15.612 154.219 15.612 L 143.882 15.612 143.882 18.987 M165.401 18.987 L 165.401 22.363 175.738 22.363 L 186.076 22.363 186.076 18.987 L 186.076 15.612 175.738 15.612 L 165.401 15.612 165.401 18.987 M186.920 18.987 L 186.920 22.363 197.257 22.363 L 207.595 22.363 207.595 18.987 L 207.595 15.612 197.257 15.612 L 186.920 15.612 186.920 18.987 M208.439 18.987 L 208.439 22.363 218.776 22.363 L 229.114 22.363 229.114 18.987 L 229.114 15.612 218.776 15.612 L 208.439 15.612 208.439 18.987 M2.110 19.409 L 2.110 22.785 12.447 22.785 L 22.785 22.785 22.785 19.409 L 22.785 16.034 12.447 16.034 L 2.110 16.034 2.110 19.409 M23.629 19.409 L 23.629 22.785 33.966 22.785 L 44.304 22.785 44.304 19.409 L 44.304 16.034 33.966 16.034 L 23.629 16.034 23.629 19.409 M45.148 19.409 L 45.148 22.785 55.485 22.785 L 65.823 22.785 65.823 19.409 L 65.823 16.034 55.485 16.034 L 45.148 16.034 45.148 19.409 M66.667 19.409 L 66.667 22.785 77.004 22.785 L 87.342 22.785 87.342 19.409 L 87.342 16.034 77.004 16.034 L 66.667 16.034 66.667 19.409 M88.186 19.409 L 88.186 22.785 98.523 22.785 L 108.861 22.785 108.861 19.409 L 108.861 16.034 98.523 16.034 L 88.186 16.034 88.186 19.409 M275.949 19.409 L 275.949 22.785 286.076 22.785 L 296.203 22.785 296.203 19.409 L 296.203 16.034 286.076 16.034 L 275.949 16.034 275.949 19.409 M297.046 19.409 L 297.046 22.785 307.384 22.785 L 317.722 22.785 317.722 19.409 L 317.722 16.034 307.384 16.034 L 297.046 16.034 297.046 19.409 M318.565 19.409 L 318.565 22.785 328.903 22.785 L 339.241 22.785 339.241 19.409 L 339.241 16.034 328.903 16.034 L 318.565 16.034 318.565 19.409 M340.084 19.409 L 340.084 22.785 350.422 22.785 L 360.759 22.785 360.759 19.409 L 360.759 16.034 350.422 16.034 L 340.084 16.034 340.084 19.409 M361.603 19.409 L 361.603 22.785 371.941 22.785 L 382.278 22.785 382.278 19.409 L 382.278 16.034 371.941 16.034 L 361.603 16.034 361.603 19.409 M243.882 28.059 L 243.882 35.865 247.257 35.865 L 250.633 35.865 250.633 28.059 L 250.633 20.253 247.257 20.253 L 243.882 20.253 243.882 28.059 M251.899 28.059 L 251.899 35.865 255.274 35.865 L 258.650 35.865 258.650 28.059 L 258.650 20.253 255.274 20.253 L 251.899 20.253 251.899 28.059 M122.785 29.114 L 122.785 32.489 132.911 32.489 L 143.038 32.489 143.038 29.114 L 143.038 25.738 132.911 25.738 L 122.785 25.738 122.785 29.114 M143.882 29.114 L 143.882 32.489 154.219 32.489 L 164.557 32.489 164.557 29.114 L 164.557 25.738 154.219 25.738 L 143.882 25.738 143.882 29.114 M165.401 29.114 L 165.401 32.489 175.738 32.489 L 186.076 32.489 186.076 29.114 L 186.076 25.738 175.738 25.738 L 165.401 25.738 165.401 29.114 M186.920 29.114 L 186.920 32.489 197.257 32.489 L 207.595 32.489 207.595 29.114 L 207.595 25.738 197.257 25.738 L 186.920 25.738 186.920 29.114 M208.439 29.114 L 208.439 32.489 218.776 32.489 L 229.114 32.489 229.114 29.114 L 229.114 25.738 218.776 25.738 L 208.439 25.738 208.439 29.114 M2.110 29.536 L 2.110 32.911 12.447 32.911 L 22.785 32.911 22.785 29.536 L 22.785 26.160 12.447 26.160 L 2.110 26.160 2.110 29.536 M23.629 29.536 L 23.629 32.911 33.966 32.911 L 44.304 32.911 44.304 29.536 L 44.304 26.160 33.966 26.160 L 23.629 26.160 23.629 29.536 M45.148 29.536 L 45.148 32.911 55.485 32.911 L 65.823 32.911 65.823 29.536 L 65.823 26.160 55.485 26.160 L 45.148 26.160 45.148 29.536 M66.667 29.536 L 66.667 32.911 77.004 32.911 L 87.342 32.911 87.342 29.536 L 87.342 26.160 77.004 26.160 L 66.667 26.160 66.667 29.536 M88.186 29.536 L 88.186 32.911 98.523 32.911 L 108.861 32.911 108.861 29.536 L 108.861 26.160 98.523 26.160 L 88.186 26.160 88.186 29.536 M275.949 29.536 L 275.949 32.911 286.076 32.911 L 296.203 32.911 296.203 29.536 L 296.203 26.160 286.076 26.160 L 275.949 26.160 275.949 29.536 M297.046 29.536 L 297.046 32.911 307.384 32.911 L 317.722 32.911 317.722 29.536 L 317.722 26.160 307.384 26.160 L 297.046 26.160 297.046 29.536 M318.565 29.536 L 318.565 32.911 328.903 32.911 L 339.241 32.911 339.241 29.536 L 339.241 26.160 328.903 26.160 L 318.565 26.160 318.565 29.536 M340.084 29.536 L 340.084 32.911 350.422 32.911 L 360.759 32.911 360.759 29.536 L 360.759 26.160 350.422 26.160 L 340.084 26.160 340.084 29.536 M361.603 29.536 L 361.603 32.911 371.941 32.911 L 382.278 32.911 382.278 29.536 L 382.278 26.160 371.941 26.160 L 361.603 26.160 361.603 29.536 M122.785 36.709 L 122.785 40.084 132.911 40.084 L 143.038 40.084 143.038 36.709 L 143.038 33.333 132.911 33.333 L 122.785 33.333 122.785 36.709 M143.882 36.709 L 143.882 40.084 154.219 40.084 L 164.557 40.084 164.557 36.709 L 164.557 33.333 154.219 33.333 L 143.882 33.333 143.882 36.709 M165.401 36.709 L 165.401 40.084 175.738 40.084 L 186.076 40.084 186.076 36.709 L 186.076 33.333 175.738 33.333 L 165.401 33.333 165.401 36.709 M186.920 36.709 L 186.920 40.084 197.257 40.084 L 207.595 40.084 207.595 36.709 L 207.595 33.333 197.257 33.333 L 186.920 33.333 186.920 36.709 M208.439 36.709 L 208.439 40.084 218.776 40.084 L 229.114 40.084 229.114 36.709 L 229.114 33.333 218.776 33.333 L 208.439 33.333 208.439 36.709 M2.110 37.131 L 2.110 40.506 12.447 40.506 L 22.785 40.506 22.785 37.131 L 22.785 33.755 12.447 33.755 L 2.110 33.755 2.110 37.131 M23.629 37.131 L 23.629 40.506 33.966 40.506 L 44.304 40.506 44.304 37.131 L 44.304 33.755 33.966 33.755 L 23.629 33.755 23.629 37.131 M45.148 37.131 L 45.148 40.506 55.485 40.506 L 65.823 40.506 65.823 37.131 L 65.823 33.755 55.485 33.755 L 45.148 33.755 45.148 37.131 M66.667 37.131 L 66.667 40.506 77.004 40.506 L 87.342 40.506 87.342 37.131 L 87.342 33.755 77.004 33.755 L 66.667 33.755 66.667 37.131 M88.186 37.131 L 88.186 40.506 98.523 40.506 L 108.861 40.506 108.861 37.131 L 108.861 33.755 98.523 33.755 L 88.186 33.755 88.186 37.131 M275.949 37.131 L 275.949 40.506 286.076 40.506 L 296.203 40.506 296.203 37.131 L 296.203 33.755 286.076 33.755 L 275.949 33.755 275.949 37.131 M297.046 37.131 L 297.046 40.506 307.384 40.506 L 317.722 40.506 317.722 37.131 L 317.722 33.755 307.384 33.755 L 297.046 33.755 297.046 37.131 M318.565 37.131 L 318.565 40.506 328.903 40.506 L 339.241 40.506 339.241 37.131 L 339.241 33.755 328.903 33.755 L 318.565 33.755 318.565 37.131 M340.084 37.131 L 340.084 40.506 350.422 40.506 L 360.759 40.506 360.759 37.131 L 360.759 33.755 350.422 33.755 L 340.084 33.755 340.084 37.131 M361.603 37.131 L 361.603 40.506 371.941 40.506 L 382.278 40.506 382.278 37.131 L 382.278 33.755 371.941 33.755 L 361.603 33.755 361.603 37.131 M243.882 44.515 L 243.882 52.321 247.257 52.321 L 250.633 52.321 250.633 44.515 L 250.633 36.709 247.257 36.709 L 243.882 36.709 243.882 44.515 M251.899 44.515 L 251.899 52.321 255.274 52.321 L 258.650 52.321 258.650 44.515 L 258.650 36.709 255.274 36.709 L 251.899 36.709 251.899 44.515 M122.785 46.835 L 122.785 50.211 132.911 50.211 L 143.038 50.211 143.038 46.835 L 143.038 43.460 132.911 43.460 L 122.785 43.460 122.785 46.835 M143.882 46.835 L 143.882 50.211 154.219 50.211 L 164.557 50.211 164.557 46.835 L 164.557 43.460 154.219 43.460 L 143.882 43.460 143.882 46.835 M165.401 46.835 L 165.401 50.211 175.738 50.211 L 186.076 50.211 186.076 46.835 L 186.076 43.460 175.738 43.460 L 165.401 43.460 165.401 46.835 M186.920 46.835 L 186.920 50.211 197.257 50.211 L 207.595 50.211 207.595 46.835 L 207.595 43.460 197.257 43.460 L 186.920 43.460 186.920 46.835 M208.439 46.835 L 208.439 50.211 218.776 50.211 L 229.114 50.211 229.114 46.835 L 229.114 43.460 218.776 43.460 L 208.439 43.460 208.439 46.835 M2.110 47.257 L 2.110 50.633 12.447 50.633 L 22.785 50.633 22.785 47.257 L 22.785 43.882 12.447 43.882 L 2.110 43.882 2.110 47.257 M23.629 47.257 L 23.629 50.633 33.966 50.633 L 44.304 50.633 44.304 47.257 L 44.304 43.882 33.966 43.882 L 23.629 43.882 23.629 47.257 M45.148 47.257 L 45.148 50.633 55.485 50.633 L 65.823 50.633 65.823 47.257 L 65.823 43.882 55.485 43.882 L 45.148 43.882 45.148 47.257 M66.667 47.257 L 66.667 50.633 77.004 50.633 L 87.342 50.633 87.342 47.257 L 87.342 43.882 77.004 43.882 L 66.667 43.882 66.667 47.257 M88.186 47.257 L 88.186 50.633 98.523 50.633 L 108.861 50.633 108.861 47.257 L 108.861 43.882 98.523 43.882 L 88.186 43.882 88.186 47.257 M275.949 47.257 L 275.949 50.633 286.076 50.633 L 296.203 50.633 296.203 47.257 L 296.203 43.882 286.076 43.882 L 275.949 43.882 275.949 47.257 M297.046 47.257 L 297.046 50.633 307.384 50.633 L 317.722 50.633 317.722 47.257 L 317.722 43.882 307.384 43.882 L 297.046 43.882 297.046 47.257 M318.565 47.257 L 318.565 50.633 328.903 50.633 L 339.241 50.633 339.241 47.257 L 339.241 43.882 328.903 43.882 L 318.565 43.882 318.565 47.257 M340.084 47.257 L 340.084 50.633 350.422 50.633 L 360.759 50.633 360.759 47.257 L 360.759 43.882 350.422 43.882 L 340.084 43.882 340.084 47.257 M361.603 47.257 L 361.603 50.633 371.941 50.633 L 382.278 50.633 382.278 47.257 L 382.278 43.882 371.941 43.882 L 361.603 43.882 361.603 47.257 M122.785 54.430 L 122.785 57.806 132.911 57.806 L 143.038 57.806 143.038 54.430 L 143.038 51.055 132.911 51.055 L 122.785 51.055 122.785 54.430 M143.882 54.430 L 143.882 57.806 154.219 57.806 L 164.557 57.806 164.557 54.430 L 164.557 51.055 154.219 51.055 L 143.882 51.055 143.882 54.430 M165.401 54.430 L 165.401 57.806 175.738 57.806 L 186.076 57.806 186.076 54.430 L 186.076 51.055 175.738 51.055 L 165.401 51.055 165.401 54.430 M186.920 54.430 L 186.920 57.806 197.257 57.806 L 207.595 57.806 207.595 54.430 L 207.595 51.055 197.257 51.055 L 186.920 51.055 186.920 54.430 M208.439 54.430 L 208.439 57.806 218.776 57.806 L 229.114 57.806 229.114 54.430 L 229.114 51.055 218.776 51.055 L 208.439 51.055 208.439 54.430 M2.110 54.852 L 2.110 58.228 12.447 58.228 L 22.785 58.228 22.785 54.852 L 22.785 51.477 12.447 51.477 L 2.110 51.477 2.110 54.852 M23.629 54.852 L 23.629 58.228 33.966 58.228 L 44.304 58.228 44.304 54.852 L 44.304 51.477 33.966 51.477 L 23.629 51.477 23.629 54.852 M45.148 54.852 L 45.148 58.228 55.485 58.228 L 65.823 58.228 65.823 54.852 L 65.823 51.477 55.485 51.477 L 45.148 51.477 45.148 54.852 M66.667 54.852 L 66.667 58.228 77.004 58.228 L 87.342 58.228 87.342 54.852 L 87.342 51.477 77.004 51.477 L 66.667 51.477 66.667 54.852 M88.186 54.852 L 88.186 58.228 98.523 58.228 L 108.861 58.228 108.861 54.852 L 108.861 51.477 98.523 51.477 L 88.186 51.477 88.186 54.852 M275.949 54.852 L 275.949 58.228 286.076 58.228 L 296.203 58.228 296.203 54.852 L 296.203 51.477 286.076 51.477 L 275.949 51.477 275.949 54.852 M297.046 54.852 L 297.046 58.228 307.384 58.228 L 317.722 58.228 317.722 54.852 L 317.722 51.477 307.384 51.477 L 297.046 51.477 297.046 54.852 M318.565 54.852 L 318.565 58.228 328.903 58.228 L 339.241 58.228 339.241 54.852 L 339.241 51.477 328.903 51.477 L 318.565 51.477 318.565 54.852 M340.084 54.852 L 340.084 58.228 350.422 58.228 L 360.759 58.228 360.759 54.852 L 360.759 51.477 350.422 51.477 L 340.084 51.477 340.084 54.852 M361.603 54.852 L 361.603 58.228 371.941 58.228 L 382.278 58.228 382.278 54.852 L 382.278 51.477 371.941 51.477 L 361.603 51.477 361.603 54.852 M243.882 60.970 L 243.882 68.776 247.257 68.776 L 250.633 68.776 250.633 60.970 L 250.633 53.165 247.257 53.165 L 243.882 53.165 243.882 60.970 M251.899 60.970 L 251.899 68.776 255.274 68.776 L 258.650 68.776 258.650 60.970 L 258.650 53.165 255.274 53.165 L 251.899 53.165 251.899 60.970 M243.882 87.975 L 243.882 95.781 247.257 95.781 L 250.633 95.781 250.633 87.975 L 250.633 80.169 247.257 80.169 L 243.882 80.169 243.882 87.975 M251.899 87.975 L 251.899 95.781 255.274 95.781 L 258.650 95.781 258.650 87.975 L 258.650 80.169 255.274 80.169 L 251.899 80.169 251.899 87.975 M3.235 88.889 C 3.080 89.044,2.953 90.610,2.953 92.370 L 2.953 95.570 13.502 95.450 L 24.051 95.330 24.051 91.969 L 24.051 88.608 13.783 88.608 C 8.136 88.608,3.390 88.734,3.235 88.889 M24.895 91.983 L 24.895 95.359 35.232 95.359 L 45.570 95.359 45.570 91.983 L 45.570 88.608 35.232 88.608 L 24.895 88.608 24.895 91.983 M46.414 91.983 L 46.414 95.359 56.751 95.359 L 67.089 95.359 67.089 91.983 L 67.089 88.608 56.751 88.608 L 46.414 88.608 46.414 91.983 M67.932 91.983 L 67.932 95.359 78.270 95.359 L 88.608 95.359 88.608 91.983 L 88.608 88.608 78.270 88.608 L 67.932 88.608 67.932 91.983 M89.451 91.983 L 89.451 95.359 99.789 95.359 L 110.127 95.359 110.127 91.983 L 110.127 88.608 99.789 88.608 L 89.451 88.608 89.451 91.983 M123.629 91.772 L 123.629 94.937 133.966 94.937 L 144.304 94.937 144.304 91.772 L 144.304 88.608 133.966 88.608 L 123.629 88.608 123.629 91.772 M145.148 91.772 L 145.148 94.937 155.485 94.937 L 165.823 94.937 165.823 91.772 L 165.823 88.608 155.485 88.608 L 145.148 88.608 145.148 91.772 M166.667 91.772 L 166.667 94.937 177.004 94.937 L 187.342 94.937 187.342 91.772 L 187.342 88.608 177.004 88.608 L 166.667 88.608 166.667 91.772 M188.186 91.772 L 188.186 94.937 198.523 94.937 L 208.861 94.937 208.861 91.772 L 208.861 88.608 198.523 88.608 L 188.186 88.608 188.186 91.772 M209.705 91.772 L 209.705 94.937 219.831 94.937 L 229.958 94.937 229.958 91.772 L 229.958 88.608 219.831 88.608 L 209.705 88.608 209.705 91.772 M276.793 92.194 L 276.793 95.359 287.131 95.359 L 297.468 95.359 297.468 92.194 L 297.468 89.030 287.131 89.030 L 276.793 89.030 276.793 92.194 M298.312 92.194 L 298.312 95.359 308.650 95.359 L 318.987 95.359 318.987 92.194 L 318.987 89.030 308.650 89.030 L 298.312 89.030 298.312 92.194 M319.831 92.194 L 319.831 95.359 330.169 95.359 L 340.506 95.359 340.506 92.194 L 340.506 89.030 330.169 89.030 L 319.831 89.030 319.831 92.194 M341.350 92.194 L 341.350 95.359 351.688 95.359 L 362.025 95.359 362.025 92.194 L 362.025 89.030 351.688 89.030 L 341.350 89.030 341.350 92.194 M362.869 92.194 L 362.869 95.359 372.996 95.359 L 383.122 95.359 383.122 92.194 L 383.122 89.030 372.996 89.030 L 362.869 89.030 362.869 92.194 M123.629 99.156 L 123.629 102.532 133.966 102.532 L 144.304 102.532 144.304 99.156 L 144.304 95.781 133.966 95.781 L 123.629 95.781 123.629 99.156 M145.148 99.156 L 145.148 102.532 155.485 102.532 L 165.823 102.532 165.823 99.156 L 165.823 95.781 155.485 95.781 L 145.148 95.781 145.148 99.156 M166.667 99.156 L 166.667 102.532 177.004 102.532 L 187.342 102.532 187.342 99.156 L 187.342 95.781 177.004 95.781 L 166.667 95.781 166.667 99.156 M188.186 99.156 L 188.186 102.532 198.523 102.532 L 208.861 102.532 208.861 99.156 L 208.861 95.781 198.523 95.781 L 188.186 95.781 188.186 99.156 M209.705 99.156 L 209.705 102.532 219.831 102.532 L 229.958 102.532 229.958 99.156 L 229.958 95.781 219.831 95.781 L 209.705 95.781 209.705 99.156 M3.235 96.484 C 3.080 96.639,2.953 98.205,2.953 99.965 L 2.953 103.165 13.502 103.045 L 24.051 102.925 24.051 99.564 L 24.051 96.203 13.783 96.203 C 8.136 96.203,3.390 96.329,3.235 96.484 M24.895 99.578 L 24.895 102.954 35.232 102.954 L 45.570 102.954 45.570 99.578 L 45.570 96.203 35.232 96.203 L 24.895 96.203 24.895 99.578 M46.414 99.578 L 46.414 102.954 56.751 102.954 L 67.089 102.954 67.089 99.578 L 67.089 96.203 56.751 96.203 L 46.414 96.203 46.414 99.578 M67.932 99.578 L 67.932 102.954 78.270 102.954 L 88.608 102.954 88.608 99.578 L 88.608 96.203 78.270 96.203 L 67.932 96.203 67.932 99.578 M89.451 99.578 L 89.451 102.954 99.789 102.954 L 110.127 102.954 110.127 99.578 L 110.127 96.203 99.789 96.203 L 89.451 96.203 89.451 99.578 M276.793 99.578 L 276.793 102.954 287.131 102.954 L 297.468 102.954 297.468 99.578 L 297.468 96.203 287.131 96.203 L 276.793 96.203 276.793 99.578 M298.312 99.578 L 298.312 102.954 308.650 102.954 L 318.987 102.954 318.987 99.578 L 318.987 96.203 308.650 96.203 L 298.312 96.203 298.312 99.578 M319.831 99.578 L 319.831 102.954 330.169 102.954 L 340.506 102.954 340.506 99.578 L 340.506 96.203 330.169 96.203 L 319.831 96.203 319.831 99.578 M341.350 99.578 L 341.350 102.954 351.688 102.954 L 362.025 102.954 362.025 99.578 L 362.025 96.203 351.688 96.203 L 341.350 96.203 341.350 99.578 M362.869 99.578 L 362.869 102.954 372.996 102.954 L 383.122 102.954 383.122 99.578 L 383.122 96.203 372.996 96.203 L 362.869 96.203 362.869 99.578 M243.882 104.430 L 243.882 112.236 247.257 112.236 L 250.633 112.236 250.633 104.430 L 250.633 96.624 247.257 96.624 L 243.882 96.624 243.882 104.430 M251.899 104.430 L 251.899 112.236 255.274 112.236 L 258.650 112.236 258.650 104.430 L 258.650 96.624 255.274 96.624 L 251.899 96.624 251.899 104.430 M123.629 109.283 L 123.629 112.658 133.966 112.658 L 144.304 112.658 144.304 109.283 L 144.304 105.907 133.966 105.907 L 123.629 105.907 123.629 109.283 M145.148 109.283 L 145.148 112.658 155.485 112.658 L 165.823 112.658 165.823 109.283 L 165.823 105.907 155.485 105.907 L 145.148 105.907 145.148 109.283 M166.667 109.283 L 166.667 112.658 177.004 112.658 L 187.342 112.658 187.342 109.283 L 187.342 105.907 177.004 105.907 L 166.667 105.907 166.667 109.283 M188.186 109.283 L 188.186 112.658 198.523 112.658 L 208.861 112.658 208.861 109.283 L 208.861 105.907 198.523 105.907 L 188.186 105.907 188.186 109.283 M209.705 109.283 L 209.705 112.658 219.831 112.658 L 229.958 112.658 229.958 109.283 L 229.958 105.907 219.831 105.907 L 209.705 105.907 209.705 109.283 M3.235 106.610 C 3.080 106.765,2.953 108.332,2.953 110.091 L 2.953 113.291 13.502 113.172 L 24.051 113.052 24.051 109.691 L 24.051 106.329 13.783 106.329 C 8.136 106.329,3.390 106.456,3.235 106.610 M24.895 109.705 L 24.895 113.080 35.232 113.080 L 45.570 113.080 45.570 109.705 L 45.570 106.329 35.232 106.329 L 24.895 106.329 24.895 109.705 M46.414 109.705 L 46.414 113.080 56.751 113.080 L 67.089 113.080 67.089 109.705 L 67.089 106.329 56.751 106.329 L 46.414 106.329 46.414 109.705 M67.932 109.705 L 67.932 113.080 78.270 113.080 L 88.608 113.080 88.608 109.705 L 88.608 106.329 78.270 106.329 L 67.932 106.329 67.932 109.705 M89.451 109.705 L 89.451 113.080 99.789 113.080 L 110.127 113.080 110.127 109.705 L 110.127 106.329 99.789 106.329 L 89.451 106.329 89.451 109.705 M276.793 109.705 L 276.793 113.080 287.131 113.080 L 297.468 113.080 297.468 109.705 L 297.468 106.329 287.131 106.329 L 276.793 106.329 276.793 109.705 M298.312 109.705 L 298.312 113.080 308.650 113.080 L 318.987 113.080 318.987 109.705 L 318.987 106.329 308.650 106.329 L 298.312 106.329 298.312 109.705 M319.831 109.705 L 319.831 113.080 330.169 113.080 L 340.506 113.080 340.506 109.705 L 340.506 106.329 330.169 106.329 L 319.831 106.329 319.831 109.705 M341.350 109.705 L 341.350 113.080 351.688 113.080 L 362.025 113.080 362.025 109.705 L 362.025 106.329 351.688 106.329 L 341.350 106.329 341.350 109.705 M362.869 109.705 L 362.869 113.080 372.996 113.080 L 383.122 113.080 383.122 109.705 L 383.122 106.329 372.996 106.329 L 362.869 106.329 362.869 109.705 M243.882 120.886 L 243.882 128.692 247.257 128.692 L 250.633 128.692 250.633 120.886 L 250.633 113.080 247.257 113.080 L 243.882 113.080 243.882 120.886 M251.899 120.886 L 251.899 128.692 255.274 128.692 L 258.650 128.692 258.650 120.886 L 258.650 113.080 255.274 113.080 L 251.899 113.080 251.899 120.886 M123.629 116.878 L 123.629 120.253 133.966 120.253 L 144.304 120.253 144.304 116.878 L 144.304 113.502 133.966 113.502 L 123.629 113.502 123.629 116.878 M145.148 116.878 L 145.148 120.253 155.485 120.253 L 165.823 120.253 165.823 116.878 L 165.823 113.502 155.485 113.502 L 145.148 113.502 145.148 116.878 M166.667 116.878 L 166.667 120.253 177.004 120.253 L 187.342 120.253 187.342 116.878 L 187.342 113.502 177.004 113.502 L 166.667 113.502 166.667 116.878 M188.186 116.878 L 188.186 120.253 198.523 120.253 L 208.861 120.253 208.861 116.878 L 208.861 113.502 198.523 113.502 L 188.186 113.502 188.186 116.878 M209.705 116.878 L 209.705 120.253 219.831 120.253 L 229.958 120.253 229.958 116.878 L 229.958 113.502 219.831 113.502 L 209.705 113.502 209.705 116.878 M3.235 114.205 C 3.080 114.360,2.953 115.927,2.953 117.686 L 2.953 120.886 13.502 120.766 L 24.051 120.647 24.051 117.285 L 24.051 113.924 13.783 113.924 C 8.136 113.924,3.390 114.051,3.235 114.205 M24.895 117.300 L 24.895 120.675 35.232 120.675 L 45.570 120.675 45.570 117.300 L 45.570 113.924 35.232 113.924 L 24.895 113.924 24.895 117.300 M46.414 117.300 L 46.414 120.675 56.751 120.675 L 67.089 120.675 67.089 117.300 L 67.089 113.924 56.751 113.924 L 46.414 113.924 46.414 117.300 M67.932 117.300 L 67.932 120.675 78.270 120.675 L 88.608 120.675 88.608 117.300 L 88.608 113.924 78.270 113.924 L 67.932 113.924 67.932 117.300 M89.451 117.300 L 89.451 120.675 99.789 120.675 L 110.127 120.675 110.127 117.300 L 110.127 113.924 99.789 113.924 L 89.451 113.924 89.451 117.300 M276.793 117.300 L 276.793 120.675 287.131 120.675 L 297.468 120.675 297.468 117.300 L 297.468 113.924 287.131 113.924 L 276.793 113.924 276.793 117.300 M298.312 117.300 L 298.312 120.675 308.650 120.675 L 318.987 120.675 318.987 117.300 L 318.987 113.924 308.650 113.924 L 298.312 113.924 298.312 117.300 M319.831 117.300 L 319.831 120.675 330.169 120.675 L 340.506 120.675 340.506 117.300 L 340.506 113.924 330.169 113.924 L 319.831 113.924 319.831 117.300 M341.350 117.300 L 341.350 120.675 351.688 120.675 L 362.025 120.675 362.025 117.300 L 362.025 113.924 351.688 113.924 L 341.350 113.924 341.350 117.300 M362.869 117.300 L 362.869 120.675 372.996 120.675 L 383.122 120.675 383.122 117.300 L 383.122 113.924 372.996 113.924 L 362.869 113.924 362.869 117.300 M123.629 127.004 L 123.629 130.380 133.966 130.380 L 144.304 130.380 144.304 127.004 L 144.304 123.629 133.966 123.629 L 123.629 123.629 123.629 127.004 M145.148 127.004 L 145.148 130.380 155.485 130.380 L 165.823 130.380 165.823 127.004 L 165.823 123.629 155.485 123.629 L 145.148 123.629 145.148 127.004 M166.667 127.004 L 166.667 130.380 177.004 130.380 L 187.342 130.380 187.342 127.004 L 187.342 123.629 177.004 123.629 L 166.667 123.629 166.667 127.004 M188.186 127.004 L 188.186 130.380 198.523 130.380 L 208.861 130.380 208.861 127.004 L 208.861 123.629 198.523 123.629 L 188.186 123.629 188.186 127.004 M209.705 127.004 L 209.705 130.380 219.831 130.380 L 229.958 130.380 229.958 127.004 L 229.958 123.629 219.831 123.629 L 209.705 123.629 209.705 127.004 M3.376 127.426 L 3.376 130.802 13.713 130.802 L 24.051 130.802 24.051 127.426 L 24.051 124.051 13.713 124.051 L 3.376 124.051 3.376 127.426 M24.895 127.426 L 24.895 130.802 35.232 130.802 L 45.570 130.802 45.570 127.426 L 45.570 124.051 35.232 124.051 L 24.895 124.051 24.895 127.426 M46.414 127.426 L 46.414 130.802 56.751 130.802 L 67.089 130.802 67.089 127.426 L 67.089 124.051 56.751 124.051 L 46.414 124.051 46.414 127.426 M67.932 127.426 L 67.932 130.802 78.270 130.802 L 88.608 130.802 88.608 127.426 L 88.608 124.051 78.270 124.051 L 67.932 124.051 67.932 127.426 M89.451 127.426 L 89.451 130.802 99.789 130.802 L 110.127 130.802 110.127 127.426 L 110.127 124.051 99.789 124.051 L 89.451 124.051 89.451 127.426 M276.793 127.426 L 276.793 130.802 287.131 130.802 L 297.468 130.802 297.468 127.426 L 297.468 124.051 287.131 124.051 L 276.793 124.051 276.793 127.426 M298.312 127.426 L 298.312 130.802 308.650 130.802 L 318.987 130.802 318.987 127.426 L 318.987 124.051 308.650 124.051 L 298.312 124.051 298.312 127.426 M319.831 127.426 L 319.831 130.802 330.169 130.802 L 340.506 130.802 340.506 127.426 L 340.506 124.051 330.169 124.051 L 319.831 124.051 319.831 127.426 M341.350 127.426 L 341.350 130.802 351.688 130.802 L 362.025 130.802 362.025 127.426 L 362.025 124.051 351.688 124.051 L 341.350 124.051 341.350 127.426 M362.869 127.426 L 362.869 130.802 372.996 130.802 L 383.122 130.802 383.122 127.426 L 383.122 124.051 372.996 124.051 L 362.869 124.051 362.869 127.426 M243.882 137.342 L 243.882 145.148 247.257 145.148 L 250.633 145.148 250.633 137.342 L 250.633 129.536 247.257 129.536 L 243.882 129.536 243.882 137.342 M251.899 137.342 L 251.899 145.148 255.274 145.148 L 258.650 145.148 258.650 137.342 L 258.650 129.536 255.274 129.536 L 251.899 129.536 251.899 137.342 M123.629 134.599 L 123.629 137.975 133.966 137.975 L 144.304 137.975 144.304 134.599 L 144.304 131.224 133.966 131.224 L 123.629 131.224 123.629 134.599 M145.148 134.599 L 145.148 137.975 155.485 137.975 L 165.823 137.975 165.823 134.599 L 165.823 131.224 155.485 131.224 L 145.148 131.224 145.148 134.599 M166.667 134.599 L 166.667 137.975 177.004 137.975 L 187.342 137.975 187.342 134.599 L 187.342 131.224 177.004 131.224 L 166.667 131.224 166.667 134.599 M188.186 134.599 L 188.186 137.975 198.523 137.975 L 208.861 137.975 208.861 134.599 L 208.861 131.224 198.523 131.224 L 188.186 131.224 188.186 134.599 M209.705 134.599 L 209.705 137.975 219.831 137.975 L 229.958 137.975 229.958 134.599 L 229.958 131.224 219.831 131.224 L 209.705 131.224 209.705 134.599 M3.376 135.021 L 3.376 138.397 13.713 138.397 L 24.051 138.397 24.051 135.021 L 24.051 131.646 13.713 131.646 L 3.376 131.646 3.376 135.021 M24.895 135.021 L 24.895 138.397 35.232 138.397 L 45.570 138.397 45.570 135.021 L 45.570 131.646 35.232 131.646 L 24.895 131.646 24.895 135.021 M46.414 135.021 L 46.414 138.397 56.751 138.397 L 67.089 138.397 67.089 135.021 L 67.089 131.646 56.751 131.646 L 46.414 131.646 46.414 135.021 M67.932 135.021 L 67.932 138.397 78.270 138.397 L 88.608 138.397 88.608 135.021 L 88.608 131.646 78.270 131.646 L 67.932 131.646 67.932 135.021 M89.451 135.021 L 89.451 138.397 99.789 138.397 L 110.127 138.397 110.127 135.021 L 110.127 131.646 99.789 131.646 L 89.451 131.646 89.451 135.021 M276.793 135.021 L 276.793 138.397 287.131 138.397 L 297.468 138.397 297.468 135.021 L 297.468 131.646 287.131 131.646 L 276.793 131.646 276.793 135.021 M298.312 135.021 L 298.312 138.397 308.650 138.397 L 318.987 138.397 318.987 135.021 L 318.987 131.646 308.650 131.646 L 298.312 131.646 298.312 135.021 M319.831 135.021 L 319.831 138.397 330.169 138.397 L 340.506 138.397 340.506 135.021 L 340.506 131.646 330.169 131.646 L 319.831 131.646 319.831 135.021 M341.350 135.021 L 341.350 138.397 351.688 138.397 L 362.025 138.397 362.025 135.021 L 362.025 131.646 351.688 131.646 L 341.350 131.646 341.350 135.021 M362.869 135.021 L 362.869 138.397 372.996 138.397 L 383.122 138.397 383.122 135.021 L 383.122 131.646 372.996 131.646 L 362.869 131.646 362.869 135.021 " stroke="none" fill="#000000" fill-rule="evenodd"></path></g></svg>